<?xml version="1.0" standalone="no"?>
<!DOCTYPE svg PUBLIC "-//W3C//DTD SVG 20010904//EN"
 "http://www.w3.org/TR/2001/REC-SVG-20010904/DTD/svg10.dtd">
<svg version="1.0" xmlns="http://www.w3.org/2000/svg"
 width="500.000000pt" height="500.000000pt" viewBox="0 0 500.000000 500.000000"
 preserveAspectRatio="xMidYMid meet">

<g transform="translate(0.000000,500.000000) scale(0.100000,-0.100000)"
fill="#000000" stroke="none">
<path d="M0 2500 l0 -2500 2500 0 2500 0 0 2500 0 2500 -2500 0 -2500 0 0
-2500z m1491 1797 c-13 -13 -26 -3 -16 12 3 6 11 8 17 5 6 -4 6 -10 -1 -17z
m-401 -38 c0 -5 -4 -9 -10 -9 -5 0 -10 7 -10 16 0 8 5 12 10 9 6 -3 10 -10 10
-16z m141 -5 c-79 -21 -148 -62 -210 -124 l-56 -55 35 49 c19 27 43 51 52 54
10 2 15 9 11 15 -3 6 -1 7 5 3 7 -4 12 -2 12 3 0 18 134 70 180 70 14 0 1 -7
-29 -15z m259 -4 c30 -10 59 -16 64 -13 5 4 6 1 2 -6 -5 -8 -3 -11 7 -9 21 4
103 -65 122 -102 9 -17 13 -30 10 -30 -3 0 -7 0 -10 0 -3 0 -4 1 -3 3 6 9 -25
46 -35 41 -7 -4 -9 -4 -5 1 9 10 -9 45 -24 45 -7 0 -6 -6 3 -17 11 -16 11 -16
-1 -5 -8 7 -15 18 -15 24 0 6 -6 13 -14 16 -9 3 -11 0 -6 -8 5 -9 4 -11 -4 -6
-6 4 -8 12 -5 18 4 7 2 8 -5 4 -6 -4 -24 0 -39 10 -15 10 -54 26 -87 35 -34
10 -49 18 -35 18 14 0 50 -8 80 -19z m211 -103 c-1 -12 -15 -9 -19 4 -3 6 1
10 8 8 6 -3 11 -8 11 -12z m24 -98 c9 -17 15 -33 13 -35 -3 -2 -12 12 -21 31
-21 43 -13 47 8 4z m-772 -14 c-9 -19 -18 -33 -21 -31 -4 5 26 66 33 66 3 0
-3 -16 -12 -35z m17 -55 c0 -5 -7 -10 -15 -10 -8 0 -15 5 -15 10 0 6 7 10 15
10 8 0 15 -4 15 -10z m787 -77 c-3 -10 -5 -4 -5 12 0 17 2 24 5 18 2 -7 2 -21
0 -30z m85 -130 l3 -98 123 -3 122 -3 0 101 0 101 28 -3 27 -3 3 -237 2 -238
-30 0 -30 0 0 115 0 115 -125 0 -125 0 0 -115 c0 -115 0 -115 -24 -115 l-24 0
-4 203 c-4 263 -3 277 28 277 23 0 23 -3 26 -97z m-977 28 c3 -5 1 -12 -5 -16
-5 -3 -10 1 -10 9 0 18 6 21 15 7z m32 -53 c-3 -8 -6 -5 -6 6 -1 11 2 17 5 13
3 -3 4 -12 1 -19z m850 -10 c-3 -8 -6 -5 -6 6 -1 11 2 17 5 13 3 -3 4 -12 1
-19z m-789 -104 c13 -9 13 -12 1 -19 -8 -5 -11 -5 -7 -1 3 4 -2 16 -13 27 -10
10 -19 25 -19 32 0 6 6 3 12 -8 6 -11 18 -25 26 -31z m753 13 c-10 -9 -11 -8
-5 6 3 10 9 15 12 12 3 -3 0 -11 -7 -18z m-47 -28 c-3 -5 -10 -7 -15 -3 -5 3
-7 10 -3 15 3 5 10 7 15 3 5 -3 7 -10 3 -15z m1402 13 c12 -7 116 -304 109
-310 -2 -2 -16 2 -32 10 -31 15 -44 48 -19 48 21 0 20 10 -5 40 -12 14 -19 18
-16 10 4 -13 -6 -15 -51 -15 l-56 0 -16 -44 c-18 -52 -30 -59 -55 -31 -19 21
-18 22 12 83 17 34 39 91 48 127 9 36 19 71 21 78 4 13 42 16 60 4z m202 -58
c1 -31 9 -66 17 -77 19 -27 19 -45 -1 -64 -8 -9 -14 -29 -13 -47 4 -59 1 -66
-30 -66 -36 0 -40 9 -33 80 3 43 1 59 -12 69 -17 15 -22 41 -7 41 10 0 26 56
22 80 -1 11 1 12 6 3 5 -7 14 -9 23 -3 11 7 11 11 1 24 -11 14 -11 16 6 16 16
0 19 -8 21 -56z m-2135 -98 c123 -58 227 -64 345 -22 51 18 90 44 153 100 25
23 20 16 -12 -15 -55 -55 -134 -102 -195 -117 -16 -4 -63 -6 -104 -6 -119 3
-256 64 -324 144 -45 54 -28 55 20 1 32 -35 68 -61 117 -85z m87 -6 c0 -5 -4
-10 -10 -10 -5 0 -10 5 -10 10 0 6 5 10 10 10 6 0 10 -4 10 -10z m1600 -970
c0 -144 -2 -170 -15 -170 -8 0 -15 7 -15 16 0 15 -2 15 -22 2 -56 -36 -118
-26 -143 23 -8 15 -15 53 -15 83 0 44 5 60 26 85 21 26 33 31 68 31 23 0 52
-7 64 -16 l22 -15 0 65 c0 52 3 66 15 66 13 0 15 -26 15 -170z m-864 149 c8
-14 -21 -43 -35 -35 -6 4 -11 16 -11 27 0 21 34 27 46 8z m-649 -19 c45 -27
66 -73 67 -145 0 -99 -50 -156 -137 -157 -60 -1 -105 25 -128 75 -41 92 -10
206 66 237 36 15 99 11 132 -10z m773 -45 l0 -65 80 0 80 0 0 65 c0 58 2 65
20 65 19 0 20 -7 20 -160 0 -153 -1 -160 -20 -160 -18 0 -20 7 -20 80 l0 80
-80 0 -80 0 0 -80 c0 -73 -2 -80 -20 -80 -19 0 -20 7 -20 160 0 153 1 160 20
160 18 0 20 -7 20 -65z m1575 48 c3 -10 26 -74 50 -143 24 -69 46 -133 50
-143 6 -15 4 -18 -15 -15 -17 2 -27 14 -38 46 l-14 43 -66 -3 -65 -3 -15 -42
c-10 -31 -19 -43 -33 -43 -10 0 -19 2 -19 4 0 4 84 250 99 289 12 32 55 38 66
10z m203 -146 c2 -152 2 -157 -18 -157 -19 0 -20 6 -20 161 0 147 1 160 18
157 15 -3 17 -20 20 -161z m-2037 83 c28 0 39 -4 39 -15 0 -11 -11 -15 -40
-15 l-40 0 0 -77 c0 -94 7 -108 49 -100 26 5 31 3 31 -12 0 -39 -87 -31 -107
9 -7 14 -13 60 -13 103 0 70 -2 77 -20 77 -11 0 -20 7 -20 15 0 8 9 15 20 15
15 0 20 7 20 24 0 37 34 40 38 4 3 -25 7 -28 43 -28z m1269 22 c0 -5 -6 -16
-13 -26 -9 -12 -12 -36 -9 -65 5 -57 -17 -82 -81 -90 -64 -9 -56 -34 13 -42
68 -7 87 -15 96 -41 18 -57 -30 -98 -114 -98 -84 0 -135 66 -81 103 17 13 19
19 10 36 -9 17 -8 24 8 40 19 19 19 20 0 37 -25 23 -24 65 2 98 19 24 27 27
73 25 41 -3 52 0 54 14 3 17 42 25 42 9z m-1602 -38 c8 -14 10 -14 21 0 9 10
30 16 58 16 52 0 87 -30 97 -85 20 -107 -47 -181 -137 -150 l-36 12 -3 -56
c-2 -44 -7 -57 -20 -59 -17 -3 -18 10 -18 167 0 143 2 171 15 171 7 0 18 -7
23 -16z m462 -104 c0 -113 -1 -120 -20 -120 -19 0 -20 7 -20 120 0 113 1 120
20 120 19 0 20 -7 20 -120z m565 114 c22 -9 45 -57 45 -94 l0 -30 -86 0 c-84
0 -85 0 -78 -22 11 -38 35 -58 70 -58 18 0 40 7 49 16 8 9 23 13 32 10 14 -6
13 -9 -6 -30 -28 -29 -68 -38 -114 -25 -83 23 -102 162 -30 219 25 20 84 27
118 14z m800 -19 c18 -18 25 -35 25 -65 l0 -40 -84 0 c-82 0 -84 -1 -79 -22
14 -57 67 -74 124 -41 31 18 43 15 34 -9 -10 -24 -53 -42 -98 -41 -33 2 -48 9
-69 33 -24 26 -28 39 -28 91 0 54 3 64 29 90 40 39 109 41 146 4z m-2025 -560
c0 -50 4 -85 10 -85 6 0 10 -7 10 -15 0 -20 -46 -20 -54 1 -3 9 -6 54 -6 100
0 77 2 84 20 84 18 0 20 -7 20 -85z m80 0 c0 -50 4 -85 10 -85 6 0 10 -7 10
-15 0 -22 -37 -18 -50 4 -5 11 -10 56 -10 100 0 74 2 81 20 81 18 0 20 -7 20
-85z m560 77 c0 -13 -39 -46 -46 -39 -12 12 8 47 27 47 10 0 19 -4 19 -8z
m304 -17 c-19 -29 -34 -32 -34 -7 0 24 8 32 32 32 17 0 18 -1 2 -25z m471 5
c0 -8 -8 -16 -17 -18 -13 -2 -18 3 -18 18 0 15 5 20 18 18 9 -2 17 -10 17 -18z
m565 -79 l0 -99 -52 0 c-65 -1 -88 17 -88 68 0 47 27 74 70 68 28 -4 30 -3 30
29 0 26 4 33 20 33 19 0 20 -7 20 -99z m-3180 9 l0 -80 45 0 c33 0 45 -4 45
-15 0 -12 -14 -15 -65 -15 l-65 0 0 95 c0 88 1 95 20 95 18 0 20 -7 20 -80z
m407 18 l38 -62 3 62 c2 46 7 62 17 62 12 0 15 -19 15 -95 0 -84 -2 -95 -18
-95 -10 0 -33 25 -57 63 l-40 62 -3 -62 c-2 -47 -7 -63 -17 -63 -12 0 -15 19
-15 95 0 87 2 95 19 95 13 0 32 -20 58 -62z m1264 52 c20 -11 26 -40 8 -40 -6
0 -20 5 -31 11 -46 25 -90 -29 -68 -86 11 -30 36 -42 58 -28 25 15 25 31 1 35
-12 2 -24 9 -27 16 -2 8 10 12 42 12 l46 0 0 -50 c0 -43 -3 -50 -20 -50 -11 0
-20 5 -20 12 0 9 -3 9 -12 0 -7 -7 -27 -12 -45 -12 -43 0 -68 37 -67 99 1 35
7 49 28 68 29 24 74 30 107 13z m1899 -8 c20 -16 20 -19 6 -31 -13 -11 -18
-10 -31 3 -19 19 -29 20 -56 6 -14 -8 -19 -21 -19 -53 0 -24 5 -48 12 -55 17
-17 55 -15 66 5 6 10 16 14 27 9 16 -6 16 -8 2 -29 -11 -16 -26 -23 -60 -25
-39 -3 -48 1 -66 24 -31 39 -29 107 4 139 29 30 83 33 115 7z m-1060 -17 c0
-8 9 -15 20 -15 11 0 20 -7 20 -15 0 -8 -9 -15 -20 -15 -16 0 -20 -7 -20 -35
0 -29 5 -37 26 -45 32 -13 22 -30 -17 -30 -32 0 -49 27 -49 79 0 15 -5 32 -11
38 -8 8 -6 17 7 32 21 24 44 28 44 6z m1898 3 c-2 -7 7 -14 20 -16 28 -4 24
-26 -6 -30 -16 -3 -22 -10 -22 -30 0 -32 9 -46 33 -55 29 -11 19 -27 -17 -27
-38 0 -46 12 -46 71 0 21 -4 39 -10 39 -5 0 -10 7 -10 15 0 8 5 15 10 15 6 0
10 7 10 15 0 8 9 15 20 15 11 0 19 -6 18 -12z m454 -41 c4 -7 8 -22 8 -34 0
-21 -5 -23 -45 -23 -25 0 -45 -5 -45 -10 0 -17 31 -24 52 -11 15 9 20 8 25 -5
7 -20 -13 -34 -51 -34 -80 0 -93 117 -16 142 18 6 62 -9 72 -25z m-4654 11 c7
-7 12 -31 12 -55 0 -24 5 -43 10 -43 6 0 10 -7 10 -15 0 -18 -31 -20 -48 -3
-9 9 -12 9 -12 0 0 -17 -55 -15 -70 3 -20 24 2 61 39 68 17 4 31 12 31 18 0 7
-12 9 -35 5 -27 -5 -35 -4 -35 8 0 8 6 17 13 19 23 10 73 7 85 -5z m436 -10
c9 -12 16 -34 16 -48 0 -44 -26 -70 -70 -70 -44 0 -70 26 -70 70 0 44 26 70
70 70 29 0 43 -6 54 -22z m86 -34 c0 -52 1 -55 23 -52 19 3 22 10 25 56 3 44
6 52 23 52 17 0 19 -7 19 -69 l0 -69 -52 0 c-29 -1 -58 4 -65 10 -8 6 -13 34
-13 69 0 52 2 59 20 59 18 0 20 -7 20 -56z m160 19 c18 -57 26 -59 42 -11 10
30 21 44 35 46 21 3 21 2 -5 -67 -22 -58 -31 -71 -48 -71 -23 0 -25 3 -54 88
-18 51 -18 52 0 52 13 0 22 -12 30 -37z m228 25 c7 -7 12 -25 12 -40 0 -27 -2
-28 -46 -28 -32 0 -44 -4 -41 -12 2 -8 20 -12 46 -11 42 2 50 -4 29 -25 -15
-15 -62 -16 -88 -2 -27 15 -36 74 -16 105 13 19 25 25 54 25 21 0 43 -5 50
-12z m316 -4 c9 -8 16 -26 16 -40 0 -22 -4 -24 -45 -24 -25 0 -45 -5 -45 -10
0 -17 31 -24 52 -11 15 9 20 8 25 -5 13 -34 -65 -48 -99 -17 -23 20 -24 80 -1
105 20 22 76 24 97 2z m416 -3 c5 -11 10 -29 10 -40 0 -18 -6 -21 -45 -21 -25
0 -45 -5 -45 -10 0 -17 31 -24 50 -12 13 8 21 7 28 0 19 -19 -6 -38 -49 -38
-43 0 -69 26 -69 70 0 44 26 70 70 70 29 0 42 -5 50 -19z m160 -1 c5 -10 10
-41 10 -69 0 -44 -3 -51 -20 -51 -18 0 -20 7 -20 56 0 52 -1 55 -22 52 -20 -3
-23 -10 -26 -55 -3 -45 -6 -53 -23 -53 -17 0 -19 7 -19 69 l0 69 55 1 c44 0
57 -3 65 -19z m154 4 c9 -8 16 -26 16 -40 0 -22 -4 -24 -45 -24 -25 0 -45 -5
-45 -10 0 -17 31 -24 52 -11 15 9 20 8 25 -5 13 -34 -65 -48 -99 -17 -23 20
-24 80 -1 105 20 22 76 24 97 2z m136 1 c0 -8 -10 -15 -22 -17 -20 -3 -23 -10
-26 -55 -3 -45 -6 -53 -23 -53 -17 0 -19 7 -19 69 l0 69 45 0 c31 0 45 -4 45
-13z m118 3 c7 -7 12 -31 12 -54 0 -24 5 -46 10 -49 18 -11 10 -25 -15 -25
-14 0 -25 5 -25 11 0 8 -4 8 -14 -1 -20 -16 -56 -9 -70 13 -15 24 3 49 43 61
43 12 40 30 -4 23 -33 -5 -47 7 -28 26 11 12 78 8 91 -5z m202 -58 c0 -63 -2
-70 -20 -70 -18 0 -20 7 -20 70 0 63 2 70 20 70 18 0 20 -7 20 -70z m158 37
c25 -53 -6 -107 -60 -107 -43 0 -68 25 -68 68 0 51 24 74 74 70 34 -2 43 -8
54 -31z m159 21 c8 -6 13 -34 13 -69 0 -52 -2 -59 -20 -59 -18 0 -20 7 -20 56
0 52 -1 55 -22 52 -20 -3 -23 -10 -26 -55 -3 -45 -6 -53 -23 -53 -17 0 -19 7
-19 69 l0 69 52 0 c29 1 58 -4 65 -10z m393 -7 c5 -11 10 -29 10 -40 0 -18 -6
-21 -45 -21 -25 0 -45 -5 -45 -10 0 -17 31 -24 50 -12 13 8 21 7 28 0 19 -19
-6 -38 -49 -38 -43 0 -69 26 -69 70 0 44 26 70 70 70 29 0 42 -5 50 -19z m404
-3 c9 -12 16 -34 16 -48 0 -44 -26 -70 -70 -70 -44 0 -70 26 -70 70 0 44 26
70 70 70 29 0 43 -6 54 -22z m81 -20 c-7 -53 6 -78 32 -62 12 7 19 26 21 58 2
32 7 46 18 46 11 0 14 -16 14 -70 0 -56 -3 -70 -15 -70 -8 0 -15 5 -15 12 0 9
-3 9 -12 0 -17 -17 -65 -15 -72 4 -3 9 -6 40 -6 70 0 48 2 54 21 54 18 0 20
-4 14 -42z m165 5 c18 -57 26 -59 40 -9 9 35 17 46 32 46 21 0 21 1 -7 -83
-17 -51 -22 -58 -43 -55 -19 2 -29 14 -42 48 -33 84 -33 90 -11 90 14 0 23
-11 31 -37z m230 18 c5 -11 10 -29 10 -40 0 -18 -6 -21 -45 -21 -25 0 -45 -5
-45 -10 0 -17 31 -24 50 -12 13 8 21 7 28 0 19 -19 -6 -38 -49 -38 -43 0 -69
26 -69 70 0 44 26 70 70 70 29 0 42 -5 50 -19z m130 4 c0 -8 -10 -15 -22 -17
-20 -3 -23 -10 -26 -55 -3 -45 -6 -53 -23 -53 -17 0 -19 7 -19 69 l0 69 45 0
c31 0 45 -4 45 -13z m170 -41 c0 -52 1 -55 23 -52 19 3 22 10 25 56 3 44 6 52
23 52 17 0 19 -7 19 -69 l0 -69 -52 0 c-29 -1 -58 4 -65 10 -8 6 -13 34 -13
69 0 52 2 59 20 59 18 0 20 -7 20 -56z m210 43 c0 -7 -10 -17 -22 -22 -19 -8
-24 -19 -26 -57 -3 -40 -6 -48 -23 -48 -17 0 -19 7 -19 69 l0 69 45 0 c28 0
45 -4 45 -11z m-2790 -395 l0 -98 -54 -2 c-64 -2 -79 11 -79 68 0 55 18 73 65
67 38 -5 38 -5 38 29 0 24 5 34 15 34 12 0 15 -18 15 -98z m630 78 c0 -13 -7
-20 -20 -20 -19 0 -27 20 -13 33 13 14 33 6 33 -13z m-560 -30 c0 -29 -4 -40
-15 -40 -11 0 -15 11 -15 40 0 29 4 40 15 40 11 0 15 -11 15 -40z m173 20 c47
-37 44 -135 -4 -160 -20 -11 -69 -13 -94 -4 -21 8 -45 56 -45 89 0 80 82 123
143 75z m281 -15 c3 -8 12 -15 21 -15 8 0 15 -7 15 -15 0 -8 -9 -15 -20 -15
-15 0 -20 -7 -20 -27 0 -33 9 -47 33 -56 27 -10 20 -27 -11 -27 -39 0 -52 17
-52 67 0 24 -4 43 -10 43 -5 0 -10 7 -10 15 0 8 5 15 10 15 6 0 10 7 10 15 0
8 6 15 14 15 8 0 16 -7 20 -15z m-89 -38 c20 -28 19 -67 -1 -96 -13 -18 -24
-22 -50 -19 -33 4 -34 3 -34 -29 0 -26 -4 -33 -20 -33 -19 0 -20 7 -20 99 l0
99 55 1 c45 0 57 -4 70 -22z m195 -47 c0 -63 -2 -70 -20 -70 -18 0 -20 7 -20
70 0 63 2 70 20 70 18 0 20 -7 20 -70z m154 48 c9 -12 16 -34 16 -48 0 -44
-26 -70 -70 -70 -44 0 -70 26 -70 70 0 44 26 70 70 70 29 0 43 -6 54 -22z
m163 10 c8 -6 13 -34 13 -69 0 -52 -2 -59 -20 -59 -18 0 -20 7 -20 56 0 52 -1
55 -22 52 -20 -3 -23 -10 -26 -55 -3 -45 -6 -53 -23 -53 -17 0 -19 7 -19 69
l0 69 52 0 c29 1 58 -4 65 -10z m138 -8 c0 -11 -9 -14 -35 -12 -39 4 -37 -2
12 -26 62 -32 43 -86 -29 -80 -27 2 -39 8 -41 21 -3 16 1 17 33 11 30 -5 37
-4 33 7 -3 8 -13 16 -24 18 -41 7 -58 43 -32 69 18 18 83 11 83 -8z"/>
<path d="M3018 3501 c-15 -48 -15 -49 6 -55 11 -3 31 -6 42 -6 l22 0 -21 55
c-11 30 -23 55 -27 55 -3 0 -13 -22 -22 -49z"/>
<path d="M2669 2521 c-30 -24 -33 -109 -4 -141 24 -27 76 -27 101 1 28 32 25
116 -5 141 -30 23 -63 23 -92 -1z"/>
<path d="M1206 2611 c-45 -9 -70 -51 -71 -120 0 -32 6 -70 14 -84 29 -55 121
-60 162 -9 18 23 20 37 17 99 -2 48 -9 78 -19 88 -20 21 -68 32 -103 26z"/>
<path d="M3615 2589 c-11 -32 -45 -132 -45 -136 0 -1 24 -3 54 -3 l55 0 -25
72 c-27 79 -31 87 -39 67z"/>
<path d="M2952 2528 c-20 -20 -15 -66 9 -78 47 -26 100 25 72 69 -13 20 -64
26 -81 9z"/>
<path d="M2927 2324 c-14 -14 -7 -43 12 -54 49 -26 127 -3 119 36 -3 16 -13
19 -64 22 -33 2 -63 0 -67 -4z"/>
<path d="M1510 2520 c-15 -15 -20 -33 -20 -70 0 -59 24 -90 68 -90 43 0 67 33
67 90 0 57 -24 90 -67 90 -15 0 -37 -9 -48 -20z"/>
<path d="M2424 2532 c-11 -7 -34 -45 -34 -56 0 -3 29 -6 65 -6 58 0 65 2 65
19 0 40 -61 67 -96 43z"/>
<path d="M3197 2522 c-10 -10 -17 -26 -17 -35 0 -14 11 -17 66 -17 63 0 65 1
58 23 -3 12 -11 28 -16 35 -16 18 -72 15 -91 -6z"/>
<path d="M3174 1966 c-3 -8 -4 -25 -2 -38 2 -17 9 -23 28 -23 22 0 25 4 25 35
0 29 -4 36 -23 38 -13 2 -24 -3 -28 -12z"/>
<path d="M4870 1970 c0 -5 11 -10 25 -10 14 0 25 5 25 10 0 6 -11 10 -25 10
-14 0 -25 -4 -25 -10z"/>
<path d="M230 1915 c0 -8 9 -15 20 -15 11 0 20 7 20 15 0 8 -9 15 -20 15 -11
0 -20 -7 -20 -15z"/>
<path d="M654 1966 c-3 -8 -4 -25 -2 -38 2 -17 9 -23 28 -23 22 0 25 4 25 35
0 29 -4 36 -23 38 -13 2 -24 -3 -28 -12z"/>
<path d="M1135 1970 c-4 -6 7 -10 25 -10 18 0 29 4 25 10 -3 6 -15 10 -25 10
-10 0 -22 -4 -25 -10z"/>
<path d="M1463 1983 c-22 -8 -14 -23 12 -23 14 0 25 4 25 9 0 11 -21 19 -37
14z"/>
<path d="M1865 1970 c-4 -6 5 -10 19 -10 14 0 26 5 26 10 0 6 -9 10 -19 10
-11 0 -23 -4 -26 -10z"/>
<path d="M2193 1983 c-22 -8 -14 -23 12 -23 14 0 25 4 25 9 0 11 -21 19 -37
14z"/>
<path d="M2458 1933 c-25 -6 -23 -33 2 -33 13 0 20 7 20 20 0 11 -1 19 -2 19
-2 -1 -11 -3 -20 -6z"/>
<path d="M2784 1966 c-11 -29 1 -61 23 -64 17 -3 24 3 29 22 3 14 4 33 0 41
-7 19 -45 20 -52 1z"/>
<path d="M3345 1970 c-4 -6 5 -10 19 -10 14 0 26 5 26 10 0 6 -9 10 -19 10
-11 0 -23 -4 -26 -10z"/>
<path d="M3744 1966 c-3 -8 -4 -25 -2 -38 2 -17 9 -23 28 -23 22 0 25 4 25 35
0 29 -4 36 -23 38 -13 2 -24 -3 -28 -12z"/>
<path d="M4225 1970 c-4 -6 5 -10 19 -10 14 0 26 5 26 10 0 6 -9 10 -19 10
-11 0 -23 -4 -26 -10z"/>
<path d="M1925 1590 c-9 -30 4 -60 26 -60 24 0 40 38 27 63 -12 23 -45 22 -53
-3z"/>
<path d="M2176 1638 c-32 -45 -11 -108 34 -108 23 0 50 36 50 67 0 26 -32 63
-54 63 -8 0 -22 -10 -30 -22z"/>
<path d="M2374 1596 c-3 -8 -4 -25 -2 -38 2 -17 9 -23 28 -23 22 0 25 4 25 35
0 29 -4 36 -23 38 -13 2 -24 -3 -28 -12z"/>
<path d="M2724 1596 c-3 -8 -4 -25 -2 -38 2 -17 9 -23 28 -23 22 0 25 4 25 35
0 29 -4 36 -23 38 -13 2 -24 -3 -28 -12z"/>
</g>
</svg>
